<mxfile host="app.diagrams.net" modified="2024-02-10T06:33:31.812Z" agent="Mozilla/5.0 (X11; Linux x86_64) AppleWebKit/537.36 (KHTML, like Gecko) Chrome/121.0.0.0 Safari/537.36" etag="c54XxBplNTovUh73duY1" version="23.1.2" type="github">
  <diagram name="Page-1" id="97916047-d0de-89f5-080d-49f4d83e522f">
    <mxGraphModel dx="1354" dy="812" grid="1" gridSize="10" guides="1" tooltips="1" connect="1" arrows="1" fold="1" page="1" pageScale="1.5" pageWidth="1169" pageHeight="827" background="none" math="0" shadow="0">
      <root>
        <mxCell id="0" />
        <mxCell id="1" parent="0" />
        <mxCell id="GSBjsV_wK484mUp0WtUv-58" value="" style="edgeStyle=orthogonalEdgeStyle;rounded=0;orthogonalLoop=1;jettySize=auto;html=1;" edge="1" parent="1" source="2" target="3">
          <mxGeometry relative="1" as="geometry" />
        </mxCell>
        <mxCell id="GSBjsV_wK484mUp0WtUv-59" value="" style="edgeStyle=orthogonalEdgeStyle;rounded=0;orthogonalLoop=1;jettySize=auto;html=1;" edge="1" parent="1" source="2" target="3">
          <mxGeometry relative="1" as="geometry" />
        </mxCell>
        <mxCell id="GSBjsV_wK484mUp0WtUv-60" value="" style="edgeStyle=orthogonalEdgeStyle;rounded=0;orthogonalLoop=1;jettySize=auto;html=1;" edge="1" parent="1" source="2" target="3">
          <mxGeometry relative="1" as="geometry" />
        </mxCell>
        <mxCell id="GSBjsV_wK484mUp0WtUv-61" value="" style="edgeStyle=orthogonalEdgeStyle;rounded=0;orthogonalLoop=1;jettySize=auto;html=1;" edge="1" parent="1" source="2" target="3">
          <mxGeometry relative="1" as="geometry" />
        </mxCell>
        <mxCell id="GSBjsV_wK484mUp0WtUv-63" value="" style="edgeStyle=orthogonalEdgeStyle;rounded=0;orthogonalLoop=1;jettySize=auto;html=1;" edge="1" parent="1" source="2" target="GSBjsV_wK484mUp0WtUv-62">
          <mxGeometry relative="1" as="geometry" />
        </mxCell>
        <mxCell id="2" value="Web Sites" style="rounded=1;fillColor=#10739E;strokeColor=none;shadow=1;gradientColor=none;fontStyle=1;fontColor=#FFFFFF;fontSize=14;" parent="1" vertex="1">
          <mxGeometry x="700" y="200" width="200" height="60" as="geometry" />
        </mxCell>
        <mxCell id="GSBjsV_wK484mUp0WtUv-65" value="" style="edgeStyle=orthogonalEdgeStyle;rounded=0;orthogonalLoop=1;jettySize=auto;html=1;" edge="1" parent="1" source="3" target="GSBjsV_wK484mUp0WtUv-64">
          <mxGeometry relative="1" as="geometry" />
        </mxCell>
        <mxCell id="GSBjsV_wK484mUp0WtUv-67" value="" style="edgeStyle=orthogonalEdgeStyle;rounded=0;orthogonalLoop=1;jettySize=auto;html=1;" edge="1" parent="1" source="3" target="GSBjsV_wK484mUp0WtUv-66">
          <mxGeometry relative="1" as="geometry" />
        </mxCell>
        <mxCell id="3" value="E Commerce" style="rounded=1;fillColor=#10739E;strokeColor=none;shadow=1;gradientColor=none;fontStyle=1;fontColor=#FFFFFF;fontSize=14;" parent="1" vertex="1">
          <mxGeometry x="520" y="320" width="238" height="60" as="geometry" />
        </mxCell>
        <mxCell id="GSBjsV_wK484mUp0WtUv-71" style="edgeStyle=orthogonalEdgeStyle;rounded=0;orthogonalLoop=1;jettySize=auto;html=1;exitX=1;exitY=0.5;exitDx=0;exitDy=0;entryX=0.5;entryY=0;entryDx=0;entryDy=0;" edge="1" parent="1" source="GSBjsV_wK484mUp0WtUv-62" target="GSBjsV_wK484mUp0WtUv-69">
          <mxGeometry relative="1" as="geometry" />
        </mxCell>
        <mxCell id="GSBjsV_wK484mUp0WtUv-73" style="edgeStyle=orthogonalEdgeStyle;rounded=0;orthogonalLoop=1;jettySize=auto;html=1;exitX=0.5;exitY=1;exitDx=0;exitDy=0;entryX=0.5;entryY=0;entryDx=0;entryDy=0;" edge="1" parent="1" source="GSBjsV_wK484mUp0WtUv-62" target="GSBjsV_wK484mUp0WtUv-72">
          <mxGeometry relative="1" as="geometry" />
        </mxCell>
        <mxCell id="GSBjsV_wK484mUp0WtUv-62" value="Static Sites" style="rounded=1;fillColor=#10739E;strokeColor=none;shadow=1;gradientColor=none;fontStyle=1;fontColor=#FFFFFF;fontSize=14;" vertex="1" parent="1">
          <mxGeometry x="877" y="320" width="200" height="60" as="geometry" />
        </mxCell>
        <mxCell id="GSBjsV_wK484mUp0WtUv-78" value="" style="edgeStyle=orthogonalEdgeStyle;rounded=0;orthogonalLoop=1;jettySize=auto;html=1;" edge="1" parent="1" source="GSBjsV_wK484mUp0WtUv-64" target="GSBjsV_wK484mUp0WtUv-77">
          <mxGeometry relative="1" as="geometry" />
        </mxCell>
        <mxCell id="GSBjsV_wK484mUp0WtUv-64" value="Wordpress" style="whiteSpace=wrap;html=1;fontSize=14;fillColor=#10739E;strokeColor=none;fontColor=#FFFFFF;rounded=1;shadow=1;gradientColor=none;fontStyle=1;" vertex="1" parent="1">
          <mxGeometry x="320" y="460" width="120" height="60" as="geometry" />
        </mxCell>
        <mxCell id="GSBjsV_wK484mUp0WtUv-66" value="Developed" style="whiteSpace=wrap;html=1;fontSize=14;fillColor=#10739E;strokeColor=none;fontColor=#FFFFFF;rounded=1;shadow=1;gradientColor=none;fontStyle=1;" vertex="1" parent="1">
          <mxGeometry x="579" y="460" width="120" height="60" as="geometry" />
        </mxCell>
        <mxCell id="GSBjsV_wK484mUp0WtUv-69" value="Wordpress" style="whiteSpace=wrap;html=1;fontSize=14;fillColor=#10739E;strokeColor=none;fontColor=#FFFFFF;rounded=1;shadow=1;gradientColor=none;fontStyle=1;" vertex="1" parent="1">
          <mxGeometry x="1160" y="460" width="120" height="60" as="geometry" />
        </mxCell>
        <mxCell id="GSBjsV_wK484mUp0WtUv-72" value="Developed" style="whiteSpace=wrap;html=1;fontSize=14;fillColor=#10739E;strokeColor=none;fontColor=#FFFFFF;rounded=1;shadow=1;gradientColor=none;fontStyle=1;" vertex="1" parent="1">
          <mxGeometry x="917" y="460" width="120" height="60" as="geometry" />
        </mxCell>
        <mxCell id="GSBjsV_wK484mUp0WtUv-77" value="&lt;font style=&quot;font-size: 16px;&quot;&gt;Advantages&lt;/font&gt;&lt;br&gt;&lt;br&gt;&lt;span style=&quot;font-weight: normal;&quot;&gt;Easy to Update&lt;br&gt;Professional Templates&lt;br&gt;Incredibly Powerful&lt;br&gt;Full control and Ownership&lt;/span&gt;" style="whiteSpace=wrap;html=1;fontSize=14;fillColor=#10739E;strokeColor=none;fontColor=#FFFFFF;rounded=1;shadow=1;gradientColor=none;fontStyle=1;" vertex="1" parent="1">
          <mxGeometry x="40" y="590" width="210" height="140" as="geometry" />
        </mxCell>
        <mxCell id="GSBjsV_wK484mUp0WtUv-79" value="&lt;font style=&quot;font-size: 16px;&quot;&gt;Dis Advantages&lt;/font&gt;&lt;br&gt;&lt;br&gt;&lt;span style=&quot;font-weight: 400;&quot;&gt;Templates&lt;br&gt;&lt;/span&gt;Watermarks&lt;br&gt;Bugs" style="whiteSpace=wrap;html=1;fontSize=14;fillColor=#10739E;strokeColor=none;fontColor=#FFFFFF;rounded=1;shadow=1;gradientColor=none;fontStyle=1;" vertex="1" parent="1">
          <mxGeometry x="280" y="590" width="210" height="140" as="geometry" />
        </mxCell>
        <mxCell id="GSBjsV_wK484mUp0WtUv-81" style="edgeStyle=orthogonalEdgeStyle;rounded=0;orthogonalLoop=1;jettySize=auto;html=1;exitX=0.5;exitY=1;exitDx=0;exitDy=0;entryX=0.477;entryY=0;entryDx=0;entryDy=0;entryPerimeter=0;" edge="1" parent="1" source="GSBjsV_wK484mUp0WtUv-64" target="GSBjsV_wK484mUp0WtUv-79">
          <mxGeometry relative="1" as="geometry" />
        </mxCell>
      </root>
    </mxGraphModel>
  </diagram>
</mxfile>
